<?xml version="1.0" encoding="UTF-8" standalone="no"?>
<svg xmlns="http://www.w3.org/2000/svg" height="32" width="32" version="1.0" viewBox="0 0 32 32">
 <path style="color:#000000;block-progression:tb;text-transform:none;text-indent:0" d="m16.008 1c-3.2462 0-6 2.3738-6 5.4373 0.02304 0.96828 0.10964 2.1624 0.6875 4.6873v0.0625l0.0625 0.0625c0.1855 0.53133 0.45544 0.83527 0.81248 1.25 0.35704 0.41469 0.7827 0.90279 1.1875 1.3125 0.04762 0.0482 0.07814 0.07806 0.12498 0.12502 0.08028 0.34932 0.17752 0.72525 0.25 1.0625 0.19284 0.89718 0.17306 1.5325 0.12502 1.75-1.395 0.48999-3.1302 1.0732-4.6874 1.7502-0.8742 0.37999-1.6654 0.71939-2.3126 1.125-0.647 0.40559-1.2908 0.71199-1.5 1.6252-0.0026 0.04162-0.0026 0.08338 0 0.12502-0.20442 1.8769-0.51364 4.6369-0.75 6.4999-0.051021 0.39213 0.15566 0.80551 0.5 0.99996 2.8274 1.5272 7.1704 2.1418 11.5 2.125 4.3294-0.0168 8.638-0.66765 11.375-2.125 0.34434-0.19446 0.55102-0.60783 0.5-0.99996-0.07546-0.58231-0.16816-1.8954-0.25-3.1874s-0.15288-2.563-0.24998-3.3123c-0.03388-0.18578-0.12172-0.36142-0.25-0.49999-0.86942-1.0382-2.1684-1.6728-3.6874-2.3124-1.3868-0.58395-3.0126-1.1903-4.625-1.875-0.09024-0.20102-0.17988-0.78585 0-1.6875 0.0492-0.2426 0.1248-0.50199 0.1884-0.75059 0.1514-0.1696 0.2696-0.3084 0.4374-0.49999 0.358-0.40859 0.743-0.83739 1.063-1.25 0.32-0.41259 0.58-0.76639 0.75-1.25l0.062-0.0624c0.652-2.6372 0.652-3.7374 0.686-4.688v-0.0625c0-3.0638-2.7544-5.4375-6.0004-5.4375z"/>
</svg>
